# xmcd
#
# Track frame offsets: 
#        150
#        14102
#        30555
#        48225
#        69017
#        86537
#        106647
#        123387
#        137327
#        153312
#        174905
#        193030
#
# Disc length: 2696 seconds
#
# Revision: 0
# Processed by: cddbd v1.5.2PL0 Copyright (c) Steve Scherf et al.
# Submitted via: ExactAudioCopy v0.99pb5
#
DISCID=8a0a860c
DTITLE=RIK - Einblicke
DYEAR=1991
DGENRE=Blues
TTITLE0=Ich lieb' Dich sehr
TTITLE1=Du und ich
TTITLE2=Wenn eine Liebe kommt
TTITLE3=Ich lass' Dich nie mehr los
TTITLE4=Kinder brauchen einen Freund
TTITLE5=Wenn der Reger faellt
TTITLE6=Liebe ist ein Wunder
TTITLE7=Hallo, schoenes Fraeulein
TTITLE8=Gib'uns nicht auf
TTITLE9=Herr General
TTITLE10=Nach dem Konzert
TTITLE11=Mondnacht (instrumental)
EXTD=
EXTT0=
EXTT1=
EXTT2=
EXTT3=
EXTT4=
EXTT5=
EXTT6=
EXTT7=
EXTT8=
EXTT9=
EXTT10=
EXTT11=
PLAYORDER=
